<?xml version="1.0" encoding="iso-8859-1"?>
<!-- Generator: Adobe Illustrator 18.0.0, SVG Export Plug-In . SVG Version: 6.00 Build 0)  -->
<!DOCTYPE svg PUBLIC "-//W3C//DTD SVG 1.1//EN" "http://www.w3.org/Graphics/SVG/1.1/DTD/svg11.dtd">
<svg version="1.1" id="Capa_1" xmlns="http://www.w3.org/2000/svg" xmlns:xlink="http://www.w3.org/1999/xlink" x="0px" y="0px"
	 viewBox="0 0 60 60" style="enable-background:new 0 0 60 60;" xml:space="preserve">
<g>
	<path d="M43.577,41.052C43.31,41.021,43.039,41,42.764,41c-0.489,0-0.965,0.053-1.425,0.149c-4.597,0.592-8.832,3.552-12.068,8.494
		l-0.466,0.711l0.359,0.548c3.635,5.552,8.529,8.609,13.783,8.609c5.253,0,10.148-3.058,13.783-8.609l0.466-0.711l-0.359-0.548
		C53.323,44.277,48.631,41.249,43.577,41.052z M47.673,47.909c0,2.707-2.202,4.909-4.909,4.909s-4.909-2.202-4.909-4.909
		c0-2.345,1.655-4.305,3.856-4.789c0.445-0.053,0.892-0.087,1.343-0.087c0.02,0,0.04,0.002,0.06,0.002
		C45.655,43.218,47.673,45.322,47.673,47.909z M42.947,57.512c-4.387,0-8.538-2.537-11.744-7.161
		c1.559-2.287,3.348-4.069,5.281-5.305c-0.4,0.874-0.629,1.842-0.629,2.864c0,3.81,3.1,6.909,6.909,6.909s6.909-3.1,6.909-6.909
		c0-1.216-0.318-2.358-0.872-3.352c2.204,1.207,4.242,3.107,5.996,5.638C51.577,54.918,47.383,57.512,42.947,57.512z"/>
	<path d="M28.555,33.532C29.223,34.451,30.301,35,31.438,35c0.95,0,1.845-0.371,2.518-1.044c0.737-0.737,1.114-1.756,1.033-2.797
		s-0.612-1.99-1.459-2.606l-12.944-9.363c-0.396-0.286-0.945-0.242-1.293,0.104c-0.348,0.348-0.391,0.896-0.104,1.293L28.555,33.532
		z"/>
	<path d="M30,15.292c0.553,0,1-0.447,1-1V2.018C45.979,2.546,58,14.896,58,30c0,4.603-1.123,8.946-3.1,12.78
		c0.512,0.455,1.009,0.948,1.496,1.465C58.694,40.004,60,35.152,60,30C60,13.458,46.542,0,30,0c-0.553,0-1,0.447-1,1v13.292
		C29,14.845,29.447,15.292,30,15.292z"/>
	<path d="M30,58C14.561,58,2,45.439,2,30c0-7.46,2.9-14.479,8.166-19.764c0.391-0.392,0.389-1.024-0.002-1.414
		C9.772,8.434,9.14,8.434,8.75,8.824C3.107,14.486,0,22.007,0,30c0,16.542,13.458,30,30,30c1.268,0,2.514-0.088,3.741-0.242
		c-0.827-0.525-1.629-1.124-2.404-1.792C30.894,57.987,30.448,58,30,58z"/>
</g>
<g>
</g>
<g>
</g>
<g>
</g>
<g>
</g>
<g>
</g>
<g>
</g>
<g>
</g>
<g>
</g>
<g>
</g>
<g>
</g>
<g>
</g>
<g>
</g>
<g>
</g>
<g>
</g>
<g>
</g>
</svg>
