<?xml version="1.0" encoding="iso-8859-1"?>
<!-- Generator: Adobe Illustrator 19.0.0, SVG Export Plug-In . SVG Version: 6.00 Build 0)  -->
<svg version="1.1" id="Layer_1" xmlns="http://www.w3.org/2000/svg" xmlns:xlink="http://www.w3.org/1999/xlink" x="0px" y="0px"
	 viewBox="0 0 512 512" style="enable-background:new 0 0 512 512;" xml:space="preserve">
<g>
	<g>
		<path d="M327.27,252.158l-102.025-59.76c-3.118-1.824-6.603-1.843-9.721-0.049c-3.127,1.789-4.701,5.113-4.701,8.711v119.5
			c0,3.598,1.571,6.922,4.699,8.711c1.549,0.887,3.088,1.328,4.814,1.328c1.755,0,3.422-0.461,4.983-1.377l101.976-59.74
			c3.078-1.799,4.948-5.098,4.948-8.662S330.338,253.957,327.27,252.158z M230.902,303.045v-84.47l72.118,42.245L230.902,303.045z"
			/>
	</g>
</g>
<g>
	<g>
		<path d="M502.799,65.255H10.878C5.328,65.255,0,69.54,0,75.085v361.412c0,5.544,5.328,10.249,10.878,10.249h491.922
			c5.549,0,9.201-4.705,9.201-10.249V75.085C512,69.54,508.348,65.255,502.799,65.255z M491.922,426.667H20.078V85.333h471.843
			V426.667z"/>
	</g>
</g>
<g>
</g>
<g>
</g>
<g>
</g>
<g>
</g>
<g>
</g>
<g>
</g>
<g>
</g>
<g>
</g>
<g>
</g>
<g>
</g>
<g>
</g>
<g>
</g>
<g>
</g>
<g>
</g>
<g>
</g>
</svg>
